<?xml version="1.0" encoding="utf-8"?>
<!-- Generator: Adobe Illustrator 24.0.1, SVG Export Plug-In . SVG Version: 6.00 Build 0)  -->
<svg version="1.1" id="Слой_1" xmlns="http://www.w3.org/2000/svg" xmlns:xlink="http://www.w3.org/1999/xlink" x="0px" y="0px"
	 viewBox="0 0 431.3 241" style="enable-background:new 0 0 431.3 241;" xml:space="preserve">
<style type="text/css">
	.st0{display:none;}
	.st1{display:inline;}
	.st2{fill:#FFFFFF;}
	.st3{fill:#9B9B9B;}
	.st4{fill:#22B573;}
	.st5{fill:#A5A5A5;}
	.st6{fill:#53AA5B;}
</style>
<g class="st0">
	<g class="st1">
		<path class="st2" d="M219,236c-72.9,0-127.5-31.2-160.4-57.4c-28.9-23-46.6-46.2-52.3-54.3C13.3,116,35.8,91,67.8,66.2
			C103.4,38.6,158.5,5.5,219,5c0.5,0,1,0,1.5,0C282.2,5,335,38.1,368.4,65.9c30.4,25.3,50.7,50.7,56.7,58.6
			c-4.3,7.7-18.7,31.3-45.6,54.6c-19.1,16.5-40.7,29.7-64.1,39.2C286,230,253.6,236,219,236z"/>
		<path class="st3" d="M220.5,0v10c26.3,0,53.3,6.2,80,18.4c21.7,9.9,43.3,23.7,64.3,41c27.4,22.7,46.6,45.7,54.3,55.5
			c-5.6,9.4-19.4,30.2-43.2,50.7c-18.7,16.1-39.7,28.9-62.7,38.1C284.6,225.2,252.9,231,219,231c-31.4,0-62-5.9-90.8-17.4
			c-23.2-9.3-45.3-22.2-65.9-38.5c-25.6-20.2-42.3-40.7-49.6-50.6c8.9-10.1,29.6-32.2,58-54.3c22.4-17.4,45.2-31.3,67.6-41.3
			c27.7-12.3,54.9-18.7,80.9-18.9c0.5,0,1,0,1.4,0L220.5,0 M220.5,0c-0.5,0-1,0-1.5,0C99,1,0,124,0,124s75,117,219,117
			c155,0,212-117,212-117S342.7,0,220.5,0L220.5,0z"/>
	</g>
	<g class="st1">
		<path class="st4" d="M219,16c-56.9,0-103,46.1-103,103s46.1,103,103,103s103-46.1,103-103S275.9,16,219,16z M219.5,192
			c-40,0-72.5-32.5-72.5-72.5S179.5,47,219.5,47S292,79.5,292,119.5S259.5,192,219.5,192z"/>
	</g>
</g>
<g>
	<g>
		<path class="st2" d="M189,127c-49.4-0.3-89.5-1.5-119.7-2.8c32.4-2.3,74-4.6,119.7-5.6V127z"/>
		<path class="st5" d="M194,113.4C85.7,115.6,0.3,125.1,0.3,125.1s66.2,6.2,193.7,6.9V113.4L194,113.4z"/>
	</g>
	<g>
		<path class="st2" d="M248,118.1c50.8,0.5,94.6,3.2,126.6,5.9c-29.1,1.4-70.5,2.7-126.6,3V118.1z"/>
		<path class="st5" d="M243,113.1v19c137.2-0.7,188.3-6.9,188.3-6.9S353.6,113.7,243,113.1L243,113.1z"/>
	</g>
</g>
<g>
	<circle class="st2" cx="219" cy="123" r="14"/>
	<path class="st6" d="M219,114c5,0,9,4,9,9s-4,9-9,9s-9-4-9-9S214,114,219,114 M219,104c-10.5,0-19,8.5-19,19s8.5,19,19,19
		s19-8.5,19-19S229.5,104,219,104L219,104z"/>
</g>
</svg>
