<?xml version="1.0" encoding="utf-8"?>
<!-- Generator: Adobe Illustrator 24.0.1, SVG Export Plug-In . SVG Version: 6.00 Build 0)  -->
<svg version="1.1" id="Слой_1" xmlns="http://www.w3.org/2000/svg" xmlns:xlink="http://www.w3.org/1999/xlink" x="0px" y="0px"
	 viewBox="0 0 404 477" style="enable-background:new 0 0 404 477;" xml:space="preserve">
<style type="text/css">
	.st0{fill:#A9C9A9;}
	.st1{fill:#5ec496;}
	.st2{fill:#f0f0f0;}
	.st3{fill:none;stroke:#5ec496;stroke-width:6;stroke-miterlimit:10;}
	.st4{fill:none;stroke:#37B77A;stroke-width:6;stroke-miterlimit:10;}
	.st5{fill:none;stroke:#4ABA82;stroke-width:6;stroke-miterlimit:10;}
	.st6{fill:none;stroke:#5CBC8A;stroke-width:6;stroke-miterlimit:10;}
	.st7{fill:none;stroke:#72C196;stroke-width:6;stroke-miterlimit:10;}
	.st8{fill:none;stroke:#82C49E;stroke-width:6;stroke-miterlimit:10;}
	.st9{fill:none;stroke:#95C6A8;stroke-width:6;stroke-miterlimit:10;}
	.st10{fill:none;stroke:#B2CCBA;stroke-width:6;stroke-miterlimit:10;}
	.st11{fill:none;stroke:#C5D1C9;stroke-width:6;stroke-miterlimit:10;}
	.st12{fill:none;stroke:#D1D1D1;stroke-width:6;stroke-miterlimit:10;}
	.st13{fill:none;stroke:#5ec496;stroke-width:6.5;stroke-miterlimit:10;}
	.st14{fill:none;stroke:#5ec496;stroke-width:5;stroke-miterlimit:10;}
	.st15{fill:none;stroke:#5ec496;stroke-width:4;stroke-miterlimit:10;}
	.st16{fill:none;stroke:#5ec496;stroke-width:3;stroke-miterlimit:10;}
	.st17{fill:#57b38a;}
</style>
<path class="st0" d="M359.5,98.7c-9-4.4-17.7-9.6-26-14.8c-12.1-7.6-29.6-18.3-33.6-33.4H99.2c-5.4,6-10.8,12.1-16.1,18.2
	c-10,13-19.5,26.5-30.5,38.8c-1.7,2.4-3.4,4.9-5.2,7.3c-5.9,8.3-11.1,16.1-13.3,25.3c-0.4,1.6-0.9,2.9-1.7,4.1v169.9
	c1.9,4.5,3.7,9.1,5.6,13.6c4.1,10.2,9.3,20,14.6,29.8c9.1,16.5,19.1,32.5,28.2,49h221.6c12.5-18.3,28.2-34.2,44-49.6
	c2.7-2.6,5.4-5.2,8.1-7.8c1.6-2.2,3.3-4.4,4.9-6.6V233.1h-72v30.6c1.2-1.3,2.6-2.4,4.2-3.1c9.8-4.2,20.7,0.6,21.3,12.2
	c0.6,14.6-3.3,29.8-8.7,43.3c-5.8,14.5-13.4,28.6-25.6,38.8c-24.5,20.6-56.5,22.4-87.1,22.4c-7.7,0-14.1-6.5-14.1-14.1
	c0-1.9,0.4-3.8,1.2-5.5c-35.1-9.6-60.9-41.7-60.9-79.8v-71.6c0-45.7,37.1-82.8,82.8-82.8h4.2c32.6,0,60.7,18.8,74.2,46.2h80.5V98.7z
	"/>
<path class="st1" d="M345,216H216.2c-26.6,0-48.2,21.6-48.2,48.2v11.2c0,7.5,6.1,13.6,13.6,13.6h117.2c7.6,0,12.9,7.4,10.6,14.7
	c-14.8,44.9-57.2,77.4-107.1,77.4h0C140,381,89.5,330.5,89.5,268.3v-59.6c0-62.3,50.5-112.8,112.8-112.8h0c39,0,73.4,19.8,93.6,49.9
	h100.2C371.7,61.6,294.1,0,202,0h0C90.4,0,0,90.4,0,202v73c0,111.6,90.4,202,202,202h0c111.6,0,202-90.4,202-202v0
	C404,242.4,377.6,216,345,216z"/>
<path class="st2" d="M321.5,289h-20.7c-12.1,43-51.6,74.5-98.5,74.5h0c-56.5,0-102.4-45.8-102.4-102.4V207
	c0-56.5,45.8-102.4,102.4-102.4h0c33.6,0,63.4,16.2,82,41.2H377C353.6,71.5,284.2,17.6,202.1,17.6h0C100.9,17.6,18.8,99.7,18.8,201
	v66.3c0,101.3,82.1,183.4,183.4,183.4h0c68.3,0,128-37.4,159.5-92.8C379.1,327.1,356.8,289,321.5,289z"/>
<path class="st3" d="M301.1,287.8c-12.1,43-51.6,75.5-98.5,75.5h0c-56.5,0-102.4-45.8-102.4-102.4v-54.1
	c0-56.5,45.8-102.4,102.4-102.4h0c33.6,0,63.4,13.2,82,38.2h92.7"/>
<g>
	<path class="st3" d="M311,115.5L311,115.5c-7.5,0-13.5-6-13.5-13.5v0c0-7.5,6-13.5,13.5-13.5l0,0c7.5,0,13.5,6,13.5,13.5v0
		C324.5,109.5,318.5,115.5,311,115.5z"/>
	<path class="st4" d="M247,77.5L247,77.5c-7.5,0-13.5-6-13.5-13.5v0c0-7.5,6-13.5,13.5-13.5h0c7.5,0,13.5,6,13.5,13.5v0
		C260.5,71.5,254.5,77.5,247,77.5z"/>
	<path class="st5" d="M168,78.5L168,78.5c-7.5,0-13.5-6-13.5-13.5v0c0-7.5,6-13.5,13.5-13.5h0c7.5,0,13.5,6,13.5,13.5v0
		C181.5,72.5,175.5,78.5,168,78.5z"/>
	<path class="st6" d="M98,115.5L98,115.5c-7.5,0-13.5-6-13.5-13.5v0c0-7.5,6-13.5,13.5-13.5h0c7.5,0,13.5,6,13.5,13.5v0
		C111.5,109.5,105.5,115.5,98,115.5z"/>
	<path class="st7" d="M60,184.5L60,184.5c-7.5,0-13.5-6-13.5-13.5v0c0-7.5,6-13.5,13.5-13.5h0c7.5,0,13.5,6,13.5,13.5v0
		C73.5,178.5,67.5,184.5,60,184.5z"/>
	<path class="st8" d="M56,264.9L56,264.9c-7.2-2.1-11.3-9.6-9.2-16.7l0,0c2.1-7.2,9.6-11.3,16.7-9.2l0,0c7.2,2.1,11.3,9.6,9.2,16.7
		l0,0C70.7,262.9,63.2,267,56,264.9z"/>
	<path class="st9" d="M78,346.5L78,346.5c-7.5,0-13.5-6-13.5-13.5l0,0c0-7.5,6-13.5,13.5-13.5h0c7.5,0,13.5,6,13.5,13.5l0,0
		C91.5,340.5,85.5,346.5,78,346.5z"/>
	<path class="st10" d="M139,406.5L139,406.5c-7.5,0-13.5-6-13.5-13.5l0,0c0-7.5,6-13.5,13.5-13.5h0c7.5,0,13.5,6,13.5,13.5l0,0
		C152.5,400.5,146.5,406.5,139,406.5z"/>
	<path class="st11" d="M222,415.5L222,415.5c-7.5,0-13.5-6-13.5-13.5l0,0c0-7.5,6-13.5,13.5-13.5h0c7.5,0,13.5,6,13.5,13.5l0,0
		C235.5,409.5,229.5,415.5,222,415.5z"/>
	<path class="st12" d="M291,376.5L291,376.5c-7.5,0-13.5-6-13.5-13.5l0,0c0-7.5,6-13.5,13.5-13.5l0,0c7.5,0,13.5,6,13.5,13.5l0,0
		C304.5,370.5,298.5,376.5,291,376.5z"/>
</g>
<g>
	<path class="st13" d="M302.5,95.6L302.5,95.6c-7.5,0-13.5-6-13.5-13.5v0c0-7.5,6-13.5,13.5-13.5h0c7.5,0,13.5,6,13.5,13.5v0
		C316,89.5,310,95.6,302.5,95.6z"/>
	<path class="st13" d="M240.5,58.6L240.5,58.6c-7.5,0-13.5-6-13.5-13.5v0c0-7.5,6-13.5,13.5-13.5h0c7.5,0,13.5,6,13.5,13.5v0
		C254,52.5,248,58.6,240.5,58.6z"/>
	<path class="st3" d="M159.5,58.6L159.5,58.6c-7.5,0-13.5-6-13.5-13.5v0c0-7.5,6-13.5,13.5-13.5h0c7.5,0,13.5,6,13.5,13.5v0
		C173,52.5,167,58.6,159.5,58.6z"/>
	<path class="st3" d="M89.5,95.6L89.5,95.6c-7.5,0-13.5-6-13.5-13.5v0c0-7.5,6-13.5,13.5-13.5h0c7.5,0,13.5,6,13.5,13.5v0
		C103,89.5,97,95.6,89.5,95.6z"/>
	<path class="st14" d="M51.5,164.6L51.5,164.6c-7.5,0-13.5-6-13.5-13.5v0c0-7.5,6-13.5,13.5-13.5h0c7.5,0,13.5,6,13.5,13.5v0
		C65,158.5,59,164.6,51.5,164.6z"/>
	<path class="st14" d="M47.5,245L47.5,245c-7.2-2.1-11.3-9.6-9.2-16.7l0,0c2.1-7.2,9.6-11.3,16.7-9.2l0,0c7.2,2.1,11.3,9.6,9.2,16.7
		l0,0C62.2,243,54.7,247.1,47.5,245z"/>
	<path class="st15" d="M69.5,326.6L69.5,326.6c-7.5,0-13.5-6-13.5-13.5v0c0-7.5,6-13.5,13.5-13.5h0c7.5,0,13.5,6,13.5,13.5v0
		C83,320.5,77,326.6,69.5,326.6z"/>
	<path class="st15" d="M130.5,386.6L130.5,386.6c-7.5,0-13.5-6-13.5-13.5v0c0-7.5,6-13.5,13.5-13.5h0c7.5,0,13.5,6,13.5,13.5v0
		C144,380.5,138,386.6,130.5,386.6z"/>
	<path class="st16" d="M213.5,395.6L213.5,395.6c-7.5,0-13.5-6-13.5-13.5v0c0-7.5,6-13.5,13.5-13.5h0c7.5,0,13.5,6,13.5,13.5v0
		C227,389.5,221,395.6,213.5,395.6z"/>
	<path class="st16" d="M282.5,356.6L282.5,356.6c-7.5,0-13.5-6-13.5-13.5v0c0-7.5,6-13.5,13.5-13.5h0c7.5,0,13.5,6,13.5,13.5v0
		C296,350.5,290,356.6,282.5,356.6z"/>
</g>
<polygon class="st17" points="390,169.5 279.2,169.5 283.2,145.5 396,145.5 "/>
</svg>
