<svg id="Слой_1" data-name="Слой 1" xmlns="http://www.w3.org/2000/svg" viewBox="0 0 948 168.19"><defs><style>.cls-1,.cls-2,.cls-3,.cls-4,.cls-5,.cls-6{fill:none;stroke-miterlimit:10;stroke-width:3px;}.cls-1{stroke:#105131;}.cls-2{stroke:#000;}.cls-3{stroke:#0d4229;}.cls-4{stroke:#136038;}.cls-5{stroke:#126638;}.cls-6{stroke:#187f44;}.cls-7{fill:#009245;}</style></defs><title>globalx_logo</title><ellipse class="cls-1" cx="339" cy="86.69" rx="75.5" ry="80"/><path class="cls-2" d="M616.64,133.5c-9.72-33-36.77-52-68.64-52-40,0-72.5,29-72.5,80,0,53,32.46,80,72.5,80,36.08,0,66-25.18,71.56-66H536.5" transform="translate(-474 -74.81)"/><polyline class="cls-3" points="178.5 6.19 178.5 162.69 265.5 162.69"/><path class="cls-4" d="M439.29,4.19h46.46a34.1,34.1,0,0,1,34.1,34.1v0a34.1,34.1,0,0,1-34.1,34.1H439.29a0,0,0,0,1,0,0V4.19A0,0,0,0,1,439.29,4.19Z"/><path class="cls-4" d="M439.29,72.39h49.34a46.4,46.4,0,0,1,46.4,46.4v0a46.4,46.4,0,0,1-46.4,46.4H439.29a0,0,0,0,1,0,0V72.39A0,0,0,0,1,439.29,72.39Z"/><polyline class="cls-5" points="675.79 165.22 612.09 4.05 547.55 164.88"/><line class="cls-5" x1="577.85" y1="92.46" x2="645.86" y2="92.64"/><polyline class="cls-6" points="697.9 6.08 697.49 164.41 784.49 164.64"/><polygon class="cls-7" points="948 165.69 912.57 165.69 808.86 3.69 844.29 3.69 948 165.69"/><polygon class="cls-7" points="946.44 3.19 911 3.19 807.29 165.19 842.73 165.19 946.44 3.19"/></svg>
