<?xml version="1.0" encoding="utf-8"?>
<!-- Generator: Adobe Illustrator 17.1.0, SVG Export Plug-In . SVG Version: 6.00 Build 0)  -->
<!DOCTYPE svg PUBLIC "-//W3C//DTD SVG 1.1//EN" "http://www.w3.org/Graphics/SVG/1.1/DTD/svg11.dtd">
<svg version="1.1" id="Layer_1" xmlns="http://www.w3.org/2000/svg" xmlns:xlink="http://www.w3.org/1999/xlink" x="0px" y="0px"
	 viewBox="0 0 1920 1080" enable-background="new 0 0 1920 1080" xml:space="preserve">
<g>
	<rect x="580.5" y="92.6" fill="#FEFAEC" width="759" height="874.5"/>
	<rect x="1329.1" y="92.6" fill="#CBC9C1" width="10.4" height="876.7"/>
	<rect x="580.5" y="101.7" fill="#B7B4AF" width="10.4" height="876.7"/>
</g>
<g>
	<rect x="540.7" y="62" fill="#B39471" width="837.8" height="60.4"/>
	<rect x="540.7" y="101" fill="#8C7258" width="837.8" height="21.4"/>
</g>
<g>
	<path fill="#E5E5E5" d="M527.9,145.4h-21.6c-18.6,0-33.8-15.1-33.8-33.8V72.7c0-18.6,15.1-33.8,33.8-33.8h21.6
		c18.6,0,33.8,15.1,33.8,33.8v38.9C561.7,130.3,546.6,145.4,527.9,145.4z"/>
	<path fill="#DF868F" d="M529.4,147.2h-24.5c-2,0-3.5-1.6-3.5-3.5V40.7c0-2,1.6-3.5,3.5-3.5h24.5c2,0,3.5,1.6,3.5,3.5v103.1
		C532.9,145.7,531.4,147.2,529.4,147.2z"/>
	<rect x="506.7" y="37.1" fill="#CC626E" width="21.5" height="110.1"/>
</g>
<g>
	<path fill="#E5E5E5" d="M1409.8,146.2h-21.6c-18.6,0-33.8-15.1-33.8-33.8V73.5c0-18.6,15.1-33.8,33.8-33.8h21.6
		c18.6,0,33.8,15.1,33.8,33.8v38.9C1443.6,131.1,1428.5,146.2,1409.8,146.2z"/>
	<path fill="#DF868F" d="M1411.3,148.1h-24.5c-2,0-3.5-1.6-3.5-3.5V41.5c0-2,1.6-3.5,3.5-3.5h24.5c2,0,3.5,1.6,3.5,3.5v103.1
		C1414.8,146.5,1413.2,148.1,1411.3,148.1z"/>
	<rect x="1388.6" y="38" fill="#CC626E" width="21.5" height="110.1"/>
</g>
<g>
	<path fill="#B39471" d="M1363,988.5H557c-5.8,0-10.4-4.7-10.4-10.4v-8.9c0-5.8,4.7-10.4,10.4-10.4H1363c5.8,0,10.4,4.7,10.4,10.4
		v8.9C1373.5,983.8,1368.8,988.5,1363,988.5z"/>
	<path fill="#8C7258" d="M1363,988.5H557c-5.8,0-10.4-4.7-10.4-10.4V978h826.9v0.1C1373.5,983.8,1368.8,988.5,1363,988.5z"/>
</g>
</svg>
