<?xml version="1.0" encoding="utf-8"?>
<!-- Generator: Adobe Illustrator 24.0.1, SVG Export Plug-In . SVG Version: 6.00 Build 0)  -->
<svg version="1.1" id="Слой_1" xmlns="http://www.w3.org/2000/svg" xmlns:xlink="http://www.w3.org/1999/xlink" x="0px" y="0px"
	 viewBox="0 0 417.2 869.5" style="enable-background:new 0 0 417.2 869.5;" xml:space="preserve">
<style type="text/css">
	.st0{fill:#E6E6E6;}
	.st1{fill:#B3B3B3;}
	.st2{fill:#CCCCCC;}
	.st3{fill:#799980;}
</style>
<g>
	<g>
		<g id="XMLID_2_">
			<g>
				<path class="st0" d="M385.2,238.6l-81.1-0.3c-0.5-0.1-1-0.2-1.5-0.2H150.4v-30.3c0-23.4,18.9-42.3,42.3-42.3h147.2
					c25,0,45.3,20.3,45.3,45.3v15.6v8.5C385.2,236.1,385.2,237.3,385.2,238.6z"/>
				<path class="st1" d="M374.6,251.1c5.8,0,10.3,5,9.9,10.7c-2.6,33.9-11.7,60.6-25.9,84.2c-2.8,4.7-9.4,5.5-13.3,1.6l-45.5-43.1
					c-2.5-2.5-3.1-6.2-1.7-9.4c4.5-10.1,7.7-21.8,9.1-35.3c0.5-5,4.8-8.9,9.9-8.8L374.6,251.1z"/>
				<path class="st0" d="M375.3,123.4c1.7,8.8-4.4,16-13.4,16h-49.5c-4.6,0-9-1.3-12.8-3.7c-3.8-2.4-6.8-5.8-8.8-10c0,0,0-0.1,0-0.1
					l54.4-54c2.5-2.4,6.5-2.1,8.5,0.8l0,0.1C364.2,87.4,371.6,104.4,375.3,123.4z"/>
				<path class="st2" d="M339.5,362.2c3.2,3.2,3.3,8.3,0.3,11.6c-14,15.3-30.8,27.4-49.6,36.4c-4.4,2.1-9.7,0-11.5-4.5l-23.1-58
					c-1.6-3.9,0-8.4,3.7-10.5c8.8-4.9,16.9-11.2,23.9-19c3.3-3.7,8.9-3.9,12.4-0.4L339.5,362.2z"/>
				<path class="st2" d="M338.4,54.1c1.8,1.9,1.8,4.9,0,6.7l-50.4,50.1c-2,1.9-5.2,1.8-7-0.3c-4.5-5.3-9.7-10-15.5-13.9
					c-1.9-1.3-4-2.6-6-3.8c-2.1-1.2-3-3.8-2-6l27.2-63.7c1.1-2.5,4-3.6,6.4-2.4c6.3,3.1,12.4,6.4,18.3,10.1
					C320,37.5,329.8,45.3,338.4,54.1z"/>
				<path class="st1" d="M270.1,12c2.6,0.9,3.9,3.8,2.8,6.3l-27,63.3c-1,2.3-3.5,3.4-5.9,2.6c-1.2-0.4-2.4-0.8-3.5-1.1
					c-9.2-2.7-18.9-4.4-28.7-5.1c-2.5-0.2-4.4-2.2-4.4-4.7l0.3-68.6c0-2.7,2.3-4.9,5-4.7c14.4,0.8,28.7,2.9,42.5,6.4
					C257.7,8,264,9.9,270.1,12z"/>
				<path class="st2" d="M268,412.8c1.2,3-0.4,6.4-3.5,7.3c-17.7,5.4-36.8,8.6-56.6,9.4c-3.2,0.1-5.8-2.4-5.8-5.6l0.3-66.7
					c0-2.9,2.3-5.3,5.2-5.5c9.6-0.7,19.3-2.3,28.7-5c2.8-0.8,5.7,0.6,6.7,3.2L268,412.8z"/>
				<path class="st2" d="M184,0.1c3.9-0.3,7.2,2.8,7.2,6.8l-0.2,64.7c0,3.4-2.6,6.3-6,6.7c-8.6,0.9-16.9,2.7-24.8,5.3
					c-0.8,0.3-1.6,0.6-2.4,0.8c-3.4,1.3-7.3-0.4-8.6-3.8l-23.9-59.9c-1.4-3.5,0.4-7.5,3.9-8.8c4-1.5,8-2.9,12.1-4.1
					C154.9,3.7,169.2,1,184,0.1z"/>
				<path class="st2" d="M184.8,351.6c2.8,0.3,5,2.7,5,5.5l-0.3,66.8c0,3.2-2.7,5.7-5.9,5.5c-21.3-1.4-41.7-6.3-60.5-14.1
					c-2.8-1.2-4.2-4.5-3-7.3l26.1-61.2c1.2-2.8,4.3-4.1,7.1-3C163.3,347.8,173.9,350.4,184.8,351.6z"/>
				<path class="st1" d="M138.1,87.1c1.2,3,0.1,6.4-2.6,8.2c-4.3,2.7-8.5,5.7-12.4,9c-2.3,1.9-4.5,3.9-6.6,6
					c-2.7,2.6-6.9,2.6-9.5-0.1L61.8,64.6c-2.6-2.6-2.6-6.9,0-9.5c4.9-4.9,10-9.4,15.5-13.8c8.5-6.8,17.6-12.9,27.2-18.1
					c3.6-1.9,8-0.4,9.5,3.4L138.1,87.1z"/>
				<path class="st1" d="M135.4,334.5c1.2,0.7,1.6,2.2,1.1,3.4L108,404.7c-0.7,1.5-2.5,2.1-3.9,1.4c-19.3-10.7-36.5-24.5-51-40.9
					c-1-1.1-0.9-2.8,0.1-3.8l51.1-50.7c1.2-1.1,3-1.1,4.1,0.2C116.1,320.1,125.2,328.1,135.4,334.5z"/>
				<path class="st2" d="M99.9,120.8c2.2,2.3,2.6,5.8,0.9,8.4c-1,1.5-1.9,3-2.8,4.5c-2.7,4.5-5.1,9.3-7.2,14.2
					c-1.5,3.5-5.4,5.1-8.9,3.6l-58.5-25.2c-3.4-1.4-5-5.4-3.6-8.8c3.6-8.6,7.8-16.9,12.5-24.9c3.6-6,7.5-11.7,11.7-17.2
					c2.5-3.3,7.3-3.6,10.2-0.7L99.9,120.8z"/>
				<path class="st1" d="M98.1,296.3c0.7,1.1,0.5,2.5-0.4,3.4l-51.9,51.5c-1.2,1.2-3.2,1-4.2-0.3c-6.4-8.9-12.1-18.3-17-28.2
					c-4.4-9-8.1-18.4-11.1-28.1c-0.4-1.3,0.3-2.8,1.6-3.3L81.4,263c1.6-0.7,3.3,0.2,3.8,1.9C87.9,276.1,92.3,286.6,98.1,296.3z"/>
				<path class="st2" d="M82.7,165.5c1.2,0.5,1.9,1.9,1.6,3.1c-1.2,5.7-2,11.6-2.3,17.6c-0.1,2.1-0.2,4.2-0.2,6.4v5.3
					c0,1.5-1.3,2.8-2.8,2.8l-71-0.3c-1.5,0-2.8-1.2-2.8-2.8V191c0-1.7,0-3.4,0.1-5.1c0.4-16.3,2.9-32.2,7.2-47.2
					c0.5-1.6,2.2-2.4,3.8-1.8L82.7,165.5z"/>
				<path class="st2" d="M82.2,247c0.1,1.2-0.6,2.3-1.7,2.8l-67.7,28.8c-1.6,0.7-3.5-0.3-3.8-2c-0.8-3.7-1.4-7.5-1.9-11.3
					c-1.2-8.7-1.8-17.6-1.8-26.7v-19.1v-3.7c0-1.5,1.3-2.8,2.8-2.8l71,0.3c0.8,0,1.5,0.3,1.9,0.8c0.5,0.5,0.8,1.2,0.8,2v21.3
					C81.8,240.5,81.9,243.7,82.2,247z"/>
			</g>
		</g>
	</g>
	<path class="st2" d="M257.5,300.5H151.7c-10.1,0-18.3-8.2-18.3-18.3v-55.7c0-10.1,8.2-18.3,18.3-18.3h105.8
		c10.1,0,18.3,8.2,18.3,18.3v55.7C275.8,292.3,267.6,300.5,257.5,300.5z"/>
	<path class="st1" d="M274.2,306.8H134.9c-3.8,0-7-3.1-7-7v-12.1c0-3.8,3.1-7,7-7h139.3c3.8,0,7,3.1,7,7v12.1
		C281.2,303.7,278.1,306.8,274.2,306.8z"/>
</g>
<polygon class="st1" points="314.7,440.4 0,868.6 94.6,868.6 409.3,440.4 "/>
<polygon class="st3" points="315.4,441 355.9,441 41.2,869.2 0.7,869.2 "/>
<polygon class="st1" points="417.2,869.4 322.6,869.4 7.9,441.2 102.5,441.2 "/>
<polygon class="st3" points="48.3,441.3 7.8,441.3 322.5,869.5 363,869.5 "/>
</svg>
